 <svg  version="1.0" xmlns="http://www.w3.org/2000/svg"  width="128.000000pt" height="128.000000pt" viewBox="0 0 128.000000 128.000000"  preserveAspectRatio="xMidYMid meet">  <g transform="translate(0.000000,128.000000) scale(0.100000,-0.100000)" fill="#000000" stroke="none"> <path d="M620 1100 c0 -28 -3 -30 -36 -30 -28 0 -35 -3 -32 -17 2 -12 14 -19 36 -21 28 -3 32 -7 32 -34 0 -24 -9 -39 -40 -65 -41 -36 -61 -83 -53 -126 l5 -25 -56 28 c-71 36 -135 46 -188 31 -98 -30 -164 -143 -138 -237 19 -66 132 -186 160 -169 6 4 -11 23 -38 43 -84 62 -119 132 -102 205 38 172 267 177 420 10 l51 -56 16 24 c30 44 96 99 151 126 196 96 382 -66 270 -233 -18 -27 -56 -65 -85 -84 -28 -19 -54 -43 -56 -52 -4 -15 -10 -14 -65 8 -89 36 -229 51 -341 36 -50 -7 -116 -22 -147 -33 -30 -11 -60 -19 -67 -16 -9 3 -13 -20 -14 -87 l-1 -92 53 27 c74 37 175 52 314 47 140 -6 248 -37 268 -78 11 -22 13 -11 13 80 l1 105 56 40 c159 114 169 277 23 363 -63 37 -153 38 -227 1 l-52 -25 1 38 c0 43 -19 78 -62 110 -23 16 -30 30 -30 54 0 30 3 33 32 36 22 2 34 9 36 21 3 14 -4 17 -32 17 -33 0 -36 2 -36 30 0 23 -4 30 -20 30 -16 0 -20 -7 -20 -30z m67 -185 c12 -8 27 -31 33 -51 15 -44 -4 -101 -50 -152 l-30 -32 -30 32 c-46 51 -65 108 -50 152 13 41 43 66 80 66 14 0 35 -7 47 -15z m167 -536 c65 -23 99 -49 83 -65 -3 -4 -43 5 -87 20 -144 47 -331 45 -465 -5 -60 -23 -75 -24 -75 -4 0 8 19 24 41 36 73 37 153 49 299 45 111 -2 147 -7 204 -27z"/> <path d="M610 871 c-5 -11 -10 -29 -10 -41 0 -26 27 -80 40 -80 13 0 40 54 40 80 0 32 -18 60 -40 60 -11 0 -24 -9 -30 -19z"/> <path d="M244 736 c-29 -29 -34 -41 -34 -82 0 -60 27 -102 96 -150 l51 -36 54 17 c30 8 89 18 132 22 l77 6 0 36 c0 99 -156 221 -283 221 -54 0 -62 -3 -93 -34z m191 -30 c76 -35 154 -123 128 -146 -4 -4 -51 -15 -105 -25 l-96 -18 -37 23 c-73 45 -96 120 -50 165 32 33 92 33 160 1z"/> <path d="M832 750 c-95 -43 -172 -133 -172 -202 l0 -35 68 -7 c37 -4 92 -16 122 -26 l55 -19 53 35 c93 61 136 151 102 214 -31 58 -145 78 -228 40z m158 -35 c68 -35 41 -126 -56 -186 -34 -21 -37 -21 -92 -6 -31 8 -74 18 -94 22 -50 8 -51 37 -3 92 66 78 177 113 245 78z"/> <path d="M496 260 c-27 -5 -77 -19 -113 -31 l-64 -23 33 -17 c136 -70 384 -73 530 -7 l52 24 -84 28 c-67 22 -108 29 -195 31 -60 2 -132 0 -159 -5z m275 -49 l24 -9 -30 -12 c-59 -24 -328 -10 -302 16 22 22 253 26 308 5z"/> </g> </svg> 