 <svg  version="1.0" xmlns="http://www.w3.org/2000/svg"  width="128.000000pt" height="128.000000pt" viewBox="0 0 128.000000 128.000000"  preserveAspectRatio="xMidYMid meet">  <g transform="translate(0.000000,128.000000) scale(0.100000,-0.100000)" fill="#5e5c64" stroke="none"> <path d="M575 1115 c-29 -28 -33 -80 -10 -111 20 -26 19 -27 -17 -43 -18 -8 -58 -40 -89 -70 -60 -61 -89 -124 -89 -195 0 -51 30 -117 63 -142 l24 -19 -24 -31 c-27 -36 -39 -89 -29 -129 8 -31 72 -64 125 -65 21 0 31 -4 25 -9 -5 -5 -74 -11 -154 -13 -113 -3 -153 -8 -183 -22 -39 -19 -67 -50 -67 -74 0 -15 60 -43 75 -34 8 5 328 23 415 23 87 0 407 -18 415 -23 15 -9 75 19 75 36 0 25 -71 74 -122 86 -27 5 -100 10 -163 10 -65 0 -116 4 -120 10 -4 6 6 10 24 10 42 0 109 28 121 51 6 10 10 32 10 49 0 31 -31 103 -50 115 -6 4 0 15 16 28 59 46 78 141 47 233 -19 55 -106 151 -160 175 -37 16 -38 17 -18 43 43 56 -1 136 -75 136 -30 0 -47 -6 -65 -25z m100 -35 c16 -18 17 -25 6 -60 -14 -49 -5 -70 43 -100 56 -34 122 -114 136 -164 14 -51 9 -106 -14 -141 -14 -21 -20 -22 -83 -18 -73 6 -94 16 -75 35 7 7 12 25 12 41 0 21 11 40 35 64 19 19 35 38 35 43 0 17 -114 130 -130 130 -16 0 -130 -113 -130 -130 0 -5 16 -24 35 -43 24 -24 35 -43 35 -64 0 -16 5 -34 12 -41 19 -19 -2 -29 -75 -35 -63 -4 -69 -3 -83 19 -22 33 -28 92 -14 144 12 44 40 77 159 184 24 21 31 34 27 50 -17 58 -17 73 -1 89 22 23 48 21 70 -3z m-17 -243 c3 -35 5 -37 38 -37 27 0 34 -4 34 -20 0 -16 -7 -20 -35 -20 l-34 0 -3 -62 c-2 -48 -7 -63 -18 -63 -11 0 -16 15 -18 63 l-3 62 -34 0 c-28 0 -35 4 -35 20 0 16 7 20 35 20 33 0 35 2 35 33 0 61 33 63 38 4z m142 -297 c0 -19 -7 -20 -160 -20 -153 0 -160 1 -160 20 0 19 7 20 160 20 153 0 160 -1 160 -20z m67 -106 c3 -9 0 -20 -8 -25 -18 -11 -420 -11 -438 0 -8 5 -11 16 -8 25 6 14 34 16 227 16 193 0 221 -2 227 -16z m-124 -100 c-27 -20 -31 -29 -23 -44 13 -25 62 -40 129 -40 88 -1 183 -17 200 -36 15 -15 14 -16 -14 -9 -24 6 -279 17 -395 17 -104 1 -379 -12 -397 -17 -32 -10 -30 13 2 25 13 5 73 12 132 16 123 7 169 18 183 44 8 15 4 23 -23 44 l-32 26 135 0 135 0 -32 -26z"/> </g> </svg> 