 <svg  version="1.0" xmlns="http://www.w3.org/2000/svg"  width="128.000000pt" height="128.000000pt" viewBox="0 0 128.000000 128.000000"  preserveAspectRatio="xMidYMid meet">  <g transform="translate(0.000000,128.000000) scale(0.100000,-0.100000)" fill="#000000" stroke="none"> <path d="M591 1113 c-11 -10 -24 -32 -27 -50 -5 -27 -1 -37 22 -61 l29 -29 -27 -124 c-15 -68 -27 -136 -28 -150 0 -56 -15 -33 -67 104 -41 108 -52 146 -44 157 36 51 32 108 -10 130 -48 26 -119 -11 -119 -63 0 -27 35 -77 53 -77 9 0 11 -36 9 -132 -1 -73 -4 -143 -5 -156 -1 -18 -20 5 -78 97 -68 107 -75 122 -63 138 7 10 14 28 14 41 0 29 -51 82 -80 82 -25 0 -80 -51 -80 -74 0 -30 23 -65 51 -76 16 -7 30 -20 33 -29 5 -15 48 -241 60 -310 8 -43 69 -114 82 -94 13 19 149 33 324 33 175 0 311 -14 324 -33 13 -20 74 51 82 94 12 69 55 295 60 310 3 9 17 22 33 29 28 11 51 46 51 76 0 23 -55 74 -80 74 -29 0 -80 -53 -80 -82 0 -13 7 -31 14 -41 12 -16 5 -31 -63 -138 -58 -92 -77 -115 -78 -97 -1 13 -4 83 -5 156 -2 96 0 132 9 132 18 0 53 50 53 77 0 32 -42 73 -75 73 -76 0 -103 -71 -54 -140 8 -11 -3 -49 -44 -157 -52 -137 -66 -160 -68 -104 0 14 -12 82 -27 150 l-27 125 29 28 c23 24 27 34 22 61 -7 39 -39 67 -76 67 -15 0 -37 -8 -49 -17z m74 -44 c4 -5 4 -21 1 -35 -9 -33 -43 -33 -52 0 -7 31 1 46 26 46 10 0 22 -5 25 -11z m-245 -24 c15 -18 5 -65 -13 -65 -32 0 -52 62 -24 73 20 9 24 8 37 -8z m474 9 c31 -12 13 -74 -21 -74 -18 0 -28 47 -13 65 14 17 13 17 34 9z m-696 -112 c2 -13 -2 -30 -9 -38 -10 -13 -14 -12 -30 2 -19 17 -25 45 -12 58 15 15 48 1 51 -22z m937 -1 c0 -13 -10 -30 -22 -38 -21 -14 -23 -13 -29 11 -9 37 2 58 28 54 17 -2 23 -10 23 -27z m-475 -138 c6 -32 19 -80 30 -107 11 -27 18 -51 16 -54 -3 -2 -31 -6 -64 -9 -68 -6 -80 3 -59 44 8 15 22 63 32 106 9 42 21 77 25 77 5 0 13 -26 20 -57z m-190 -53 c17 -41 38 -82 47 -92 9 -10 14 -20 12 -22 -2 -2 -31 -5 -64 -7 -48 -2 -59 1 -56 12 2 8 6 48 8 89 4 76 10 107 18 98 3 -2 18 -37 35 -78z m393 -27 l4 -93 -52 0 c-59 0 -71 7 -51 29 8 9 28 51 46 94 18 43 36 75 40 70 4 -4 10 -50 13 -100z m-565 -32 c53 -73 53 -81 -3 -81 -28 0 -39 18 -50 75 -4 22 -9 50 -11 63 -7 33 6 22 64 -57z m738 6 c-7 -37 -18 -73 -24 -79 -10 -10 -72 -2 -72 10 0 10 101 145 105 140 2 -2 -2 -34 -9 -71z m-43 -127 c37 -9 47 -16 47 -32 0 -19 -4 -20 -42 -14 -204 34 -455 34 -710 0 -44 -6 -48 -5 -48 14 0 23 11 27 135 42 98 12 559 5 618 -10z"/> <path d="M520 424 c-25 -2 -82 -6 -128 -10 -71 -5 -81 -8 -71 -20 10 -12 5 -30 -25 -89 -63 -125 -45 -140 182 -156 121 -9 203 -9 324 0 227 16 245 31 182 156 -29 58 -35 77 -25 88 9 12 0 15 -56 21 -95 8 -329 15 -383 10z m398 -70 c35 -7 53 -31 33 -44 -7 -4 -34 -3 -59 2 -60 13 -431 13 -499 1 -56 -11 -79 -4 -70 20 4 10 26 18 64 22 32 3 67 8 78 10 30 5 415 -4 453 -11z m-29 -83 c71 -7 98 -28 71 -55 -40 -40 -600 -40 -639 -1 -27 26 -2 49 60 56 73 8 429 8 508 0z"/> </g> </svg> 