 <svg  version="1.0" xmlns="http://www.w3.org/2000/svg"  width="128.000000pt" height="128.000000pt" viewBox="0 0 128.000000 128.000000"  preserveAspectRatio="xMidYMid meet">  <g transform="translate(0.000000,128.000000) scale(0.100000,-0.100000)" fill="#000000" stroke="none"> <path d="M604 1039 c-37 -11 -82 -53 -90 -86 -4 -13 -4 -43 -2 -67 4 -34 1 -45 -13 -54 -22 -14 -54 -75 -63 -121 -7 -40 9 -105 35 -143 19 -26 19 -27 0 -33 -29 -9 -96 -87 -126 -145 -28 -55 -55 -162 -55 -220 l0 -35 350 0 350 0 0 25 c0 60 -23 160 -50 217 -30 65 -99 148 -131 158 -19 6 -19 7 0 33 30 42 43 104 32 152 -9 42 -55 120 -70 120 -4 0 -6 23 -3 52 10 101 -71 173 -164 147z m95 -65 c28 -23 31 -32 31 -80 0 -46 6 -63 35 -105 42 -61 46 -120 15 -199 l-20 -51 59 -63 c71 -73 111 -153 118 -237 l6 -59 -303 0 -302 0 4 58 c5 79 52 173 122 245 l56 57 -20 51 c-31 78 -27 137 15 198 29 42 35 60 35 103 1 55 11 76 45 96 33 19 72 14 104 -14z"/> </g> </svg> 