 <svg  version="1.0" xmlns="http://www.w3.org/2000/svg"  width="128.000000pt" height="128.000000pt" viewBox="0 0 128.000000 128.000000"  preserveAspectRatio="xMidYMid meet">  <g transform="translate(0.000000,128.000000) scale(0.100000,-0.100000)" fill="#000000" stroke="none"> <path d="M542 1055 c-22 -25 -43 -45 -47 -45 -5 0 -24 18 -43 41 -27 31 -40 39 -61 37 -20 -2 -27 -9 -29 -31 -2 -16 1 -41 6 -57 9 -25 5 -37 -41 -106 -28 -43 -80 -135 -115 -203 -60 -117 -64 -128 -60 -179 6 -70 39 -107 98 -107 23 0 42 -5 44 -12 3 -7 19 -13 35 -13 23 0 38 10 68 46 21 25 65 65 98 88 33 24 80 63 104 86 l44 43 -7 -44 c-11 -69 -41 -121 -121 -208 -90 -98 -113 -146 -106 -228 1 -10 77 -13 346 -13 l345 0 0 126 c0 429 -132 675 -392 728 -58 12 -63 15 -69 43 -14 68 -42 71 -97 8z m82 -53 c14 -21 26 -43 26 -48 0 -16 50 -57 103 -83 58 -29 98 -73 136 -150 53 -103 64 -168 65 -356 l1 -170 -250 0 c-228 0 -250 2 -253 17 -6 30 30 89 101 165 106 115 146 224 96 269 -17 16 -23 16 -42 5 -41 -26 -141 -106 -207 -168 l-68 -61 -48 15 c-71 23 -79 28 -82 51 -3 21 -3 21 26 5 28 -16 31 -16 56 1 15 9 32 28 38 42 10 20 8 29 -9 52 -11 15 -33 31 -49 37 -16 5 -31 10 -33 12 -3 2 75 152 85 162 2 2 17 -10 33 -28 16 -17 37 -31 47 -31 9 0 34 18 56 40 60 64 51 133 -19 154 -19 6 -23 14 -23 52 0 24 2 44 3 44 2 0 17 -11 33 -25 38 -33 62 -32 104 5 19 16 38 29 41 30 4 0 18 -17 33 -38z m182 -52 c169 -82 264 -331 264 -690 l0 -100 -33 0 -34 0 0 153 c-1 189 -20 302 -72 412 -21 45 -56 99 -80 123 -38 39 -128 92 -158 92 -6 0 -9 9 -6 21 5 18 11 20 40 16 19 -3 55 -16 79 -27z m-353 -89 c-2 -40 -43 -87 -67 -78 -25 10 -20 60 9 91 34 37 61 31 58 -13z m-168 -306 c0 -25 -4 -31 -27 -33 -19 -2 -28 2 -33 18 -8 27 12 52 39 48 16 -2 21 -10 21 -33z"/> </g> </svg> 