 <svg  version="1.0" xmlns="http://www.w3.org/2000/svg"  width="128.000000pt" height="128.000000pt" viewBox="0 0 128.000000 128.000000"  preserveAspectRatio="xMidYMid meet">  <g transform="translate(0.000000,128.000000) scale(0.100000,-0.100000)" fill="#000000" stroke="none"> <path d="M303 1043 c-9 -3 -13 -30 -13 -87 l0 -82 45 -44 45 -44 0 -168 0 -167 -30 -34 c-25 -29 -30 -43 -30 -86 l0 -51 -34 0 c-45 0 -58 -18 -54 -77 l3 -48 405 0 405 0 2 50 c1 60 -9 75 -53 75 l-34 0 0 51 c0 43 -5 57 -30 86 l-30 34 0 167 0 168 45 44 45 44 0 82 c0 93 -1 94 -80 94 -64 0 -80 -7 -80 -36 0 -22 -4 -24 -49 -24 -47 0 -50 2 -53 28 l-3 27 -85 0 -85 0 -3 -27 c-3 -26 -6 -28 -53 -28 -45 0 -49 2 -49 24 0 13 -7 27 -16 30 -18 7 -113 7 -131 -1z m122 -68 c14 -14 25 -28 25 -30 0 -3 -24 -5 -54 -5 -39 0 -55 4 -60 15 -18 48 46 62 89 20z m282 3 c13 -12 23 -25 23 -30 0 -4 -40 -8 -90 -8 -49 0 -90 3 -90 7 0 4 10 17 22 30 30 32 102 32 135 1z m237 7 c12 -33 -4 -45 -60 -45 -30 0 -54 2 -54 5 0 2 11 16 25 30 29 28 79 34 89 10z m36 -99 c0 -7 -10 -16 -22 -20 -30 -8 -606 -8 -635 0 -13 4 -23 13 -23 20 0 12 57 14 340 14 283 0 340 -2 340 -14z m-90 -91 c0 -13 -34 -15 -250 -15 -216 0 -250 2 -250 15 0 13 34 15 250 15 216 0 250 -2 250 -15z m-32 -177 l-3 -123 -215 0 -215 0 -3 123 -3 122 221 0 221 0 -3 -122z m32 -178 c0 -6 -90 -10 -250 -10 -160 0 -250 4 -250 10 0 6 90 10 250 10 160 0 250 -4 250 -10z m58 -72 c3 -17 -17 -18 -307 -18 -253 0 -311 3 -311 13 0 8 3 17 7 20 4 4 142 6 307 5 277 -3 301 -4 304 -20z m7 -98 c0 -13 -42 -15 -309 -18 -181 -1 -314 2 -319 7 -28 28 10 31 316 29 270 -3 312 -5 312 -18z m-315 -54 c168 0 318 4 333 8 25 8 29 6 25 -10 -3 -18 -18 -19 -358 -19 -340 0 -355 1 -358 19 -4 16 0 18 25 10 15 -4 165 -8 333 -8z"/> </g> </svg> 