 <svg  version="1.0" xmlns="http://www.w3.org/2000/svg"  width="128.000000pt" height="128.000000pt" viewBox="0 0 128.000000 128.000000"  preserveAspectRatio="xMidYMid meet">  <g transform="translate(0.000000,128.000000) scale(0.100000,-0.100000)" fill="#000000" stroke="none"> <path d="M575 1115 c-29 -28 -33 -80 -10 -111 20 -26 19 -27 -17 -43 -18 -8 -58 -40 -89 -70 -60 -61 -89 -124 -89 -195 0 -51 30 -117 62 -142 l25 -18 -23 -34 c-27 -39 -39 -91 -30 -128 8 -30 73 -63 126 -64 25 0 31 -3 20 -9 -8 -5 -78 -11 -155 -13 -108 -3 -149 -9 -178 -23 -38 -18 -67 -49 -67 -72 0 -17 58 -46 73 -36 10 6 317 24 417 24 100 0 407 -18 417 -24 16 -10 73 19 73 38 0 24 -71 74 -122 85 -27 5 -97 10 -156 10 -59 0 -114 5 -122 10 -11 7 -6 10 20 10 53 1 118 34 126 64 9 37 -3 89 -30 128 l-23 34 25 18 c32 25 62 91 62 142 0 71 -29 134 -89 195 -31 30 -71 62 -88 70 -37 16 -38 17 -18 43 43 56 -1 136 -75 136 -30 0 -47 -6 -65 -25z m109 -47 c8 -22 6 -32 -9 -48 -22 -24 -42 -25 -67 -3 -38 34 -15 86 37 81 22 -2 32 -10 39 -30z m7 -133 c102 -52 179 -152 179 -233 0 -45 -22 -95 -55 -120 -26 -20 -39 -22 -175 -22 -136 0 -149 2 -175 22 -33 25 -55 75 -55 120 0 45 40 126 81 165 27 25 132 92 147 93 1 0 25 -11 53 -25z m115 -447 l27 -33 -97 -3 c-53 -1 -139 -1 -192 0 l-97 3 27 33 28 32 138 0 138 0 28 -32z m32 -95 c-5 -30 -91 -52 -198 -52 -107 0 -193 22 -198 52 -3 16 12 17 198 17 186 0 201 -1 198 -17z m-166 -119 c21 -11 76 -18 182 -24 111 -6 161 -13 188 -26 42 -20 42 -39 0 -23 -22 9 -257 21 -402 21 -145 0 -380 -12 -402 -21 -39 -15 -45 5 -8 24 22 12 77 19 183 24 99 6 164 14 187 24 19 8 36 16 38 16 2 1 17 -6 34 -15z"/> <path d="M627 874 c-4 -4 -7 -22 -7 -41 0 -31 -2 -33 -36 -33 -28 0 -35 -3 -32 -17 2 -12 14 -19 35 -21 32 -3 32 -4 35 -65 2 -47 7 -62 18 -62 11 0 16 15 18 62 3 61 3 62 35 65 21 2 33 9 35 21 3 13 -4 17 -32 17 -33 0 -35 2 -38 37 -3 35 -17 51 -31 37z"/> </g> </svg> 