 <svg  version="1.0" xmlns="http://www.w3.org/2000/svg"  width="128.000000pt" height="128.000000pt" viewBox="0 0 128.000000 128.000000"  preserveAspectRatio="xMidYMid meet">  <g transform="translate(0.000000,128.000000) scale(0.100000,-0.100000)" fill="#000000" stroke="none"> <path d="M546 1060 c-20 -22 -42 -40 -49 -40 -7 0 -29 16 -47 35 -61 63 -111 29 -81 -55 8 -24 6 -34 -14 -62 -36 -50 -140 -234 -176 -311 -26 -57 -31 -77 -27 -118 7 -67 41 -104 98 -104 23 0 42 -5 44 -12 3 -7 19 -13 35 -13 23 0 38 10 68 46 21 25 67 66 102 91 36 26 82 64 104 86 l40 40 -7 -44 c-11 -69 -41 -121 -122 -209 -92 -99 -112 -143 -105 -227 1 -10 77 -13 346 -13 l345 0 0 118 c0 210 -36 401 -98 517 -34 63 -115 146 -171 175 -24 12 -75 30 -114 40 -66 16 -72 20 -78 47 -13 66 -41 70 -93 13z m56 -41 c3 -37 13 -43 89 -57 234 -43 348 -240 366 -629 l6 -143 -306 0 c-269 0 -307 2 -307 15 0 36 34 92 101 163 86 92 118 156 130 260 5 42 11 97 15 120 6 39 4 44 -12 40 -11 -2 -21 -15 -25 -35 -9 -46 -58 -102 -146 -169 -43 -32 -101 -84 -130 -114 -55 -58 -60 -59 -42 -13 8 22 7 30 -7 40 -21 16 -54 0 -54 -26 0 -47 -69 -24 -84 27 -7 24 -6 45 3 70 18 51 136 267 179 325 35 48 42 81 27 125 -11 34 11 27 35 -13 18 -29 28 -35 56 -35 28 0 38 6 60 40 32 48 42 50 46 9z"/> <path d="M414 892 c-39 -27 -57 -97 -28 -109 35 -13 88 73 63 103 -13 16 -19 17 -35 6z"/> <path d="M230 575 c-18 -22 -1 -50 31 -50 20 0 24 5 24 30 0 23 -5 31 -21 33 -11 2 -27 -4 -34 -13z"/> </g> </svg> 