 <svg  version="1.0" xmlns="http://www.w3.org/2000/svg"  width="128.000000pt" height="128.000000pt" viewBox="0 0 128.000000 128.000000"  preserveAspectRatio="xMidYMid meet">  <g transform="translate(0.000000,128.000000) scale(0.100000,-0.100000)" fill="#000000" stroke="none"> <path d="M585 1105 c-33 -32 -32 -70 3 -103 l27 -27 -28 -135 c-15 -74 -30 -146 -33 -160 -4 -19 -18 10 -60 120 -42 110 -53 149 -45 160 36 51 32 108 -10 130 -48 26 -119 -11 -119 -63 0 -29 35 -77 57 -77 11 0 14 -6 9 -22 -3 -13 -6 -84 -6 -158 l0 -135 -79 120 c-73 111 -77 122 -65 142 8 12 14 32 14 43 0 28 -52 80 -80 80 -25 0 -80 -51 -80 -74 0 -30 23 -65 51 -76 34 -14 30 -4 69 -205 17 -88 36 -167 43 -176 7 -9 27 -35 45 -59 37 -50 39 -68 13 -102 -11 -14 -27 -44 -37 -67 -16 -41 -16 -43 3 -69 28 -37 80 -44 363 -44 283 0 335 7 363 44 19 26 19 28 3 69 -10 23 -26 53 -37 67 -26 34 -24 52 14 102 17 24 37 50 44 59 7 9 26 88 43 176 39 201 35 191 69 205 28 11 51 46 51 76 0 23 -55 74 -80 74 -28 0 -80 -52 -80 -80 0 -11 6 -31 14 -43 12 -20 8 -31 -65 -142 l-79 -120 0 135 c0 74 -3 145 -6 158 -5 16 -2 22 9 22 22 0 57 48 57 77 0 32 -42 73 -75 73 -76 0 -103 -71 -54 -140 8 -11 -3 -50 -45 -160 -42 -110 -56 -139 -60 -120 -3 14 -18 86 -33 160 l-28 135 29 28 c23 23 27 34 22 60 -13 65 -85 89 -131 42z m85 -36 c9 -15 8 -24 -1 -35 -28 -33 -80 -3 -59 35 6 12 19 21 30 21 11 0 24 -9 30 -21z m-245 -44 c0 -25 -4 -30 -24 -30 -32 0 -49 28 -31 50 7 9 23 15 34 13 16 -2 21 -10 21 -33z m486 19 c17 -21 0 -49 -32 -49 -24 0 -36 23 -25 51 7 19 40 18 57 -2z m-707 -90 c8 -20 -11 -54 -29 -54 -15 0 -45 26 -45 40 0 14 41 39 55 33 8 -2 16 -11 19 -19z m940 -3 c20 -32 -39 -65 -61 -35 -17 23 -16 29 3 48 15 16 45 9 58 -13z m-474 -199 c14 -70 26 -134 28 -142 2 -12 -9 -15 -58 -16 -51 -1 -60 2 -58 15 37 191 54 271 58 271 3 0 16 -57 30 -128z m-230 85 c0 -10 55 -160 84 -229 6 -14 -1 -17 -48 -20 l-56 -3 0 138 c0 90 4 136 10 132 6 -3 10 -12 10 -18z m420 -112 l0 -135 -56 0 c-50 0 -55 2 -49 18 10 23 86 224 91 240 10 34 14 0 14 -123z m-620 57 c0 -5 29 -52 63 -105 l64 -96 -44 -7 c-24 -3 -46 -5 -48 -3 -9 9 -51 219 -43 219 4 0 8 -4 8 -8z m792 -99 c-13 -60 -25 -109 -27 -111 -2 -2 -23 -1 -47 3 l-44 7 63 95 c35 53 63 100 63 105 0 4 4 8 8 8 5 0 -2 -48 -16 -107z m-84 -149 c28 -4 52 -9 52 -13 0 -3 -13 -20 -29 -37 l-29 -32 -93 10 c-88 9 -450 5 -494 -6 -14 -4 -28 5 -49 30 -16 19 -27 36 -25 39 21 20 515 27 667 9z m-38 -119 c4 -2 5 -18 2 -35 -3 -24 -8 -30 -21 -25 -29 12 -354 17 -436 7 -44 -5 -81 -9 -82 -8 0 0 -3 15 -5 31 l-3 30 85 6 c84 7 448 1 460 -6z m-101 -95 c118 -11 151 -24 151 -60 0 -9 5 -21 10 -26 8 -8 6 -15 -4 -23 -34 -28 -618 -28 -652 0 -10 8 -12 15 -4 23 5 5 10 17 10 26 0 35 35 50 131 59 136 12 229 12 358 1z"/> </g> </svg> 