 <svg  version="1.0" xmlns="http://www.w3.org/2000/svg"  width="128.000000pt" height="128.000000pt" viewBox="0 0 128.000000 128.000000"  preserveAspectRatio="xMidYMid meet">  <g transform="translate(0.000000,128.000000) scale(0.100000,-0.100000)" fill="#000000" stroke="none"> <path d="M303 1043 c-9 -3 -13 -30 -13 -87 l0 -82 45 -44 45 -44 0 -169 0 -169 -30 -35 c-25 -28 -30 -42 -30 -83 l0 -50 -34 0 c-45 0 -58 -18 -54 -77 l3 -48 405 0 405 0 3 48 c4 59 -9 77 -54 77 l-34 0 0 50 c0 41 -5 55 -30 83 l-30 35 0 169 0 169 45 44 45 44 0 82 c0 93 -1 94 -80 94 -64 0 -80 -7 -80 -36 0 -22 -4 -24 -49 -24 -47 0 -50 2 -53 28 l-3 27 -85 0 -85 0 -3 -27 c-3 -26 -6 -28 -53 -28 -45 0 -49 2 -49 24 0 13 -7 27 -16 30 -18 7 -113 7 -131 -1z m107 -68 c0 -25 1 -25 90 -25 89 0 90 0 90 25 0 23 3 25 50 25 47 0 50 -2 50 -25 0 -25 1 -25 90 -25 89 0 90 0 90 25 0 23 4 25 40 25 l40 0 0 -50 0 -50 -310 0 -310 0 0 50 0 50 40 0 c36 0 40 -2 40 -25z m483 -137 l-27 -28 -226 0 -226 0 -27 28 -26 27 279 0 279 0 -26 -27z m-33 -220 l0 -168 -220 0 -220 0 0 168 0 167 220 0 220 0 0 -167z m26 -213 c13 -20 11 -20 -245 -20 l-258 0 15 23 c14 22 15 22 245 20 217 -3 230 -4 243 -23z m34 -90 l0 -35 -280 0 -280 0 0 35 0 35 280 0 280 0 0 -35z m80 -100 l0 -25 -360 0 -360 0 0 25 0 25 360 0 360 0 0 -25z"/> </g> </svg> 