 <svg  version="1.0" xmlns="http://www.w3.org/2000/svg"  width="128.000000pt" height="128.000000pt" viewBox="0 0 128.000000 128.000000"  preserveAspectRatio="xMidYMid meet">  <g transform="translate(0.000000,128.000000) scale(0.100000,-0.100000)" fill="#000000" stroke="none"> <path d="M604 1039 c-66 -19 -112 -97 -93 -161 7 -26 5 -34 -11 -45 -25 -18 -55 -76 -64 -124 -7 -40 14 -121 39 -149 15 -17 15 -19 -3 -24 -30 -10 -97 -87 -127 -146 -28 -55 -55 -162 -55 -220 l0 -35 350 0 350 0 0 35 c0 58 -27 165 -55 220 -30 59 -97 136 -127 146 -18 5 -18 7 -3 24 25 28 46 109 39 149 -9 48 -39 106 -64 124 -16 11 -18 19 -11 45 28 95 -69 188 -165 161z m100 -65 c30 -30 35 -86 11 -118 -13 -18 -12 -21 19 -42 41 -28 66 -79 66 -134 0 -50 -19 -89 -60 -123 l-30 -26 36 -11 c95 -32 170 -148 198 -307 l5 -33 -309 0 -309 0 6 37 c20 144 103 272 197 303 l36 11 -30 26 c-41 34 -60 73 -60 123 0 55 25 106 66 134 31 21 32 24 19 42 -8 10 -15 35 -15 55 0 80 97 120 154 63z"/> </g> </svg> 