 <svg  version="1.0" xmlns="http://www.w3.org/2000/svg"  width="128.000000pt" height="128.000000pt" viewBox="0 0 128.000000 128.000000"  preserveAspectRatio="xMidYMid meet">  <g transform="translate(0.000000,128.000000) scale(0.100000,-0.100000)" fill="#000000" stroke="none"> <path d="M620 1100 c0 -28 -3 -30 -36 -30 -28 0 -35 -3 -32 -17 2 -12 14 -19 36 -21 28 -3 32 -7 32 -33 0 -22 -12 -40 -45 -72 -42 -40 -45 -47 -45 -94 l0 -50 -55 28 c-101 51 -188 48 -255 -8 -43 -36 -73 -99 -73 -153 0 -74 34 -126 141 -212 20 -16 22 -26 19 -120 l-2 -103 57 -29 c88 -43 226 -63 344 -48 93 12 173 36 220 67 24 16 25 20 23 112 -2 96 -2 96 27 116 52 37 115 101 135 139 23 44 25 118 5 157 -23 44 -88 96 -139 110 -57 16 -119 8 -181 -23 l-46 -23 0 45 c0 41 -5 50 -45 89 -33 32 -45 50 -45 72 0 26 4 30 32 33 22 2 34 9 36 21 3 14 -4 17 -32 17 -33 0 -36 2 -36 30 0 23 -4 30 -20 30 -16 0 -20 -7 -20 -30z m64 -211 c39 -46 36 -99 -11 -172 l-36 -58 -30 47 c-21 31 -32 62 -35 98 -4 45 -1 56 23 84 34 40 56 40 89 1z m-256 -101 c47 -14 129 -82 163 -136 21 -34 29 -58 29 -92 l0 -47 -73 -6 c-40 -4 -103 -16 -140 -27 -76 -23 -83 -22 -149 38 -50 45 -68 80 -68 132 0 96 81 167 175 153 17 -3 45 -9 63 -15z m567 -1 c39 -19 85 -71 91 -103 3 -18 3 -47 -1 -65 -8 -36 -80 -118 -131 -150 -30 -18 -35 -19 -61 -5 -31 16 -167 46 -208 46 -23 0 -25 3 -25 50 0 157 201 293 335 227z m-164 -346 c58 -18 67 -25 72 -49 3 -15 4 -28 4 -29 -1 -1 -29 8 -62 19 -86 30 -264 36 -375 14 -46 -10 -92 -22 -102 -27 -15 -8 -18 -6 -18 20 0 26 5 31 50 46 83 28 139 34 255 30 74 -2 132 -10 176 -24z m0 -100 c58 -18 67 -25 72 -49 3 -15 4 -28 4 -29 -1 -1 -29 8 -62 20 -52 19 -82 21 -220 21 -136 0 -168 -3 -217 -20 l-58 -21 0 28 c0 24 6 29 50 44 82 27 139 34 255 30 76 -2 131 -10 176 -24z m-53 -87 c110 -23 116 -29 52 -48 -130 -39 -281 -39 -410 0 -63 19 -57 25 45 47 93 20 218 21 313 1z"/> </g> </svg> 